<?xml version="1.0" encoding="UTF-8"?>
<!DOCTYPE svg PUBLIC "-//W3C//DTD SVG 1.1//EN" "http://www.w3.org/Graphics/SVG/1.1/DTD/svg11.dtd">
<svg version="1.1" xmlns="http://www.w3.org/2000/svg" xmlns:xlink="http://www.w3.org/1999/xlink" x="0" y="0" width="626" height="626" viewBox="0, 0, 626, 626">
  <g id="Layer_1">
    <path d="M312.823,496.145 C448.72,496.145 559.557,385.31 559.557,249.413 C559.557,113.517 448.72,2.68 312.823,2.68 C176.928,2.68 66.091,113.517 66.091,249.413 C66.091,385.31 176.928,496.145 312.823,496.145" fill="#E15F29"/>
    <path d="M312.963,622.997 L312.963,622.997 L622.646,525.2 L395.217,268.876 L312.823,252.016 L312.963,622.997" fill="#EAA72D"/>
    <path d="M371.338,264.15 L518.413,558.116 L560.745,583.28 L382.213,264.406 L371.338,264.15" fill="#EAA72D"/>
    <path d="M466.477,561.749 L474.505,561.749 L528.788,543.386 L519.337,543.386 L466.477,561.749 z M458.822,542.069 L510.329,525.261 L519.337,525.261 L466.477,542.069 L458.822,542.069 z M451.508,523.352 L501.724,508.024 L510.329,508.024 L458.822,523.352 L451.508,523.352 z M444.504,505.509 L493.487,491.593 L501.724,491.593 L451.508,505.509 L444.504,505.509 z M444.504,488.462 L437.785,488.462 L485.586,475.897 L493.487,475.897 L444.504,488.462 z M431.327,471.987 L477.995,460.874 L485.586,460.874 L437.785,472.147 L431.327,471.987 z M425.11,456.503 L470.688,446.47 L477.995,446.47 L431.327,456.503 L425.11,456.503 z M419.116,441.475 L463.645,432.637 L470.688,432.637 L425.11,441.475 L419.116,441.475 z M413.33,427.022 L456.847,419.33 L463.645,419.33 L419.116,427.022 L413.33,427.022 z M407.735,413.1 L450.275,406.513 L456.847,406.513 L413.33,413.1 L407.735,413.1 z M402.321,399.673 L443.917,394.154 L450.275,394.154 L407.735,399.673 L402.321,399.673 z M397.075,386.704 L437.757,382.218 L443.917,382.218 L402.321,387.193 L397.075,386.704 z M431.783,370.679 L437.757,370.679 L397.075,374.168 L391.983,374.168 L431.783,370.679 z M425.985,359.512 L431.783,359.512 L391.983,362.035 L387.01,362.035 L425.985,359.512 z M420.351,348.694 L425.985,348.694 L387.042,350.279 L382.238,350.279 L420.351,348.694" fill="#F8C823"/>
    <path d="M474.505,582.645 L474.505,561.749 L528.788,543.386 L528.788,564.282 L474.505,582.645 z M519.337,543.386 L519.337,525.261 L466.477,542.069 L466.477,561.749 L519.337,543.386 z M458.822,542.069 L458.822,523.352 L510.329,508.024 L510.329,525.261 L458.822,542.069 z M451.508,523.352 L501.724,508.024 L501.724,491.593 L451.508,505.509 L451.52,522.839 L451.508,523.352 z M444.504,488.462 L493.487,475.897 L493.487,491.593 L444.504,505.509 L444.504,488.462 z M437.785,472.147 L437.785,488.462 L485.586,475.897 L485.586,460.874 L437.785,472.147 z M431.327,471.987 L431.327,456.503 L477.995,446.47 L477.995,460.874 L431.327,471.987 z M425.11,456.503 L470.688,446.47 L470.688,432.637 L425.11,441.475 L425.11,456.503 z M419.116,427.022 L463.645,419.33 L463.645,432.637 L419.116,441.475 L419.116,427.022 z M413.33,427.022 L456.847,419.33 L456.847,406.513 L413.33,413.1 L413.33,427.022 z M407.735,413.1 L407.735,399.673 L450.275,394.154 L450.275,406.513 L407.735,413.1" fill="#F1AC2B"/>
    <path d="M402.321,386.704 L443.917,382.218 L443.917,394.154 L402.321,399.673 L402.321,386.704" fill="#F1AC2B"/>
    <path d="M437.757,382.218 L437.757,370.679 L397.075,374.168 L397.075,386.704 L437.757,382.218" fill="#F1AC2B"/>
    <path d="M391.983,374.168 L391.983,362.035 L431.783,359.512 L431.783,370.679 L391.983,374.168" fill="#F1AC2B"/>
    <path d="M425.985,348.694 L425.985,359.512 L387.01,362.035 L387.042,350.279 L425.985,348.694" fill="#F1AC2B"/>
    <path d="M420.351,338.206 L382.238,338.883 L382.238,350.279 L420.351,348.694 L420.351,338.206" fill="#F1AC2B"/>
    <path d="M414.87,338.206 L414.87,328.027 L377.566,327.821 L377.566,338.883 L414.87,338.206" fill="#F1AC2B"/>
    <path d="M409.535,318.14 L373.017,317.076 L373.017,327.821 L409.535,327.821 L409.535,318.14" fill="#F1AC2B"/>
    <path d="M404.341,308.53 L368.585,306.63 L368.585,317.076 L404.341,317.989 L404.341,308.53" fill="#F1AC2B"/>
    <path d="M399.276,299.181 L399.276,308.26 L364.263,306.63 L364.263,296.469 L399.276,299.181" fill="#F1AC2B"/>
    <path d="M360.047,286.577 L394.336,290.081 L394.336,298.799 L360.047,296.469 L360.047,286.577" fill="#F1AC2B"/>
    <path d="M355.93,276.941 L389.513,281.217 L389.513,289.589 L355.93,286.577 L355.93,276.941" fill="#F1AC2B"/>
    <path d="M351.907,267.548 L384.802,272.577 L384.802,280.618 L351.907,276.931 L351.907,267.548" fill="#F1AC2B"/>
    <path d="M380.197,264.15 L380.197,271.873 L347.974,267.245 L347.974,258.386 L380.197,264.15" fill="#F1AC2B"/>
    <path d="M335.918,257.325 L439.459,583.05 L481.791,608.212 L346.793,257.579 L335.918,257.325" fill="#EAA72D"/>
    <path d="M382.213,264.406 L560.745,583.28 L576.89,576.401 L385.406,265.469 L382.213,264.406 z M346.793,257.579 L349.984,258.644 L497.934,601.335 L481.791,608.212 L346.793,257.579" fill="#FBD64A"/>
    <path d="M420.351,338.206 L382.238,338.883 L377.566,338.883 L414.87,338.206 L420.351,338.206 z M405.024,270.882 L404.892,279.781 L392.97,277.754 L386.392,267.071 L405.024,270.882 z M418.623,284.797 L418.751,295.401 L401.968,292.365 L394.558,280.331 L418.623,284.797 z M432.045,310.385 L432.077,300.484 L404.176,295.951 L411.471,307.792 L432.045,310.385 z M312.823,252.016 L312.826,262.059 L338.976,266.945 L339.132,257.4 L312.823,252.016 z M312.827,265.165 L343.885,270.928 L343.912,282.476 L312.832,277.361 L312.827,265.165 z M349.059,298.664 L349.058,286.995 L312.834,281.111 L312.839,293.307 L349.059,298.664 z M354.282,315.098 L312.844,310.06 L312.841,296.897 L354.111,302.658 L354.282,315.098 z M312.852,329.631 L360.433,334.444 L360.418,319.434 L312.846,313.97 L312.852,329.631 z M312.854,333.301 L366.317,337.943 L366.322,352.972 L312.86,349.685 L312.854,333.301 z M312.861,353.919 L372.738,357.329 L372.955,373.84 L312.868,372.034 L312.861,353.919 z M312.869,375.824 L379.874,377.514 L379.889,395.654 L312.876,395.678 L312.869,375.824 z M312.879,400.308 L386.726,399.549 L386.783,417.34 L312.886,420.115 L312.879,400.308 z M312.888,424.794 L394.633,421.052 L394.821,442.63 L312.897,449.27 L312.888,424.794 z M312.898,454.43 L312.908,479.714 L403.082,468.614 L403.086,446.479 L312.898,454.43 z M420.591,523.692 L312.935,548.139 L312.921,518.257 L420.578,498.452 L420.591,523.692 z M312.921,512.901 L312.91,485.356 L411.533,472.216 L411.724,495.8 L312.921,512.901 z M312.948,587.157 L430.485,554.817 L430.414,526.28 L312.935,554.702 L312.948,587.157 z M312.963,622.997 L312.952,594.407 L439.481,557.511 L439.459,583.05 L312.963,622.997 z M476.253,360.209 L476.385,347.502 L433.637,343.789 L442.838,358.729 L476.253,360.209 z M453.632,376.256 L491.403,377.284 L491.363,364.086 L444.492,361.416 L453.632,376.256 z M464.979,394.682 L506.662,394.483 L506.548,380.708 L455.582,379.424 L464.979,394.682 z M522.159,411.948 L521.943,398.16 L467.465,398.72 L476.653,413.638 L522.159,411.948 z M538.181,430.005 L489.536,434.557 L478.847,417.199 L538.146,414.486 L538.181,430.005 z M555.662,449.706 L555.981,432.867 L491.99,438.544 L502.904,456.264 L555.662,449.706 z M570.318,466.225 L515.188,476.212 L505.021,459.704 L570.781,450.923 L570.318,466.225 z M527.757,496.622 L586.193,484.116 L585.891,467.403 L517.28,479.608 L527.757,496.622 z M543.924,522.874 L530.813,501.585 L604.247,485.386 L604.763,505.046 L543.924,522.874 z M557.94,545.634 L622.646,525.2 L621.089,504.557 L546.107,526.419 L557.94,545.634 z M461.107,343.138 L461.11,330.999 L423.069,326.629 L431.495,340.31 L461.107,343.138 z M446.234,326.375 L445.926,315.474 L413.404,310.934 L421.435,323.975 L446.234,326.375" fill="#C78F31"/>
    <path d="M312.685,622.997 L312.685,622.997 L3,525.2 L230.429,268.876 L312.823,252.016 L312.685,622.997" fill="#F5BD3E"/>
    <path d="M254.308,264.15 L107.233,558.116 L64.9,583.28 L243.433,264.406 L254.308,264.15" fill="#F3B22E"/>
    <path d="M159.17,561.749 L151.141,561.749 L96.858,543.386 L106.31,543.386 L159.17,561.749 z M166.824,542.069 L115.317,525.261 L106.31,525.261 L159.17,542.069 L166.824,542.069 z M174.139,523.352 L123.922,508.024 L115.317,508.024 L166.824,523.352 L174.139,523.352 z M181.142,505.509 L132.159,491.593 L123.922,491.593 L174.139,505.509 L181.142,505.509 z M181.142,488.462 L187.861,488.462 L140.06,475.897 L132.159,475.897 L181.142,488.462 z M194.318,471.987 L147.652,460.874 L140.06,460.874 L187.861,472.147 L194.318,471.987 z M200.536,456.503 L154.959,446.47 L147.652,446.47 L194.318,456.503 L200.536,456.503 z M206.529,441.475 L162.001,432.637 L154.959,432.637 L200.536,441.475 L206.529,441.475 z M212.316,427.022 L168.8,419.33 L162.001,419.33 L206.529,427.022 L212.316,427.022 z M217.91,413.1 L175.371,406.513 L168.8,406.513 L212.316,413.1 L217.91,413.1 z M223.325,399.673 L181.729,394.154 L175.371,394.154 L217.91,399.673 L223.325,399.673 z M228.572,386.704 L187.888,382.218 L181.729,382.218 L223.325,387.193 L228.572,386.704 z M193.862,370.679 L187.888,370.679 L228.572,374.168 L233.662,374.168 L193.862,370.679 z M199.661,359.512 L193.862,359.512 L233.662,362.035 L238.637,362.035 L199.661,359.512 z M205.296,348.694 L199.661,348.694 L238.604,350.279 L243.407,350.279 L205.296,348.694" fill="#FCE06F"/>
    <path d="M151.141,582.645 L151.141,561.749 L96.858,543.386 L96.858,564.282 L151.141,582.645 z M106.31,543.386 L106.31,525.261 L159.17,542.069 L159.17,561.749 L106.31,543.386 z M166.824,542.069 L166.824,523.352 L115.317,508.024 L115.317,525.261 L166.824,542.069 z M174.139,523.352 L123.922,508.024 L123.922,491.593 L174.139,505.509 L174.127,522.839 L174.139,523.352 z M181.142,488.462 L132.159,475.897 L132.159,491.593 L181.142,505.509 L181.142,488.462 z M187.861,472.147 L187.861,488.462 L140.06,475.897 L140.06,460.874 L187.861,472.147 z M194.318,471.987 L194.318,456.503 L147.652,446.47 L147.652,460.874 L194.318,471.987 z M200.536,456.503 L154.959,446.47 L154.959,432.637 L200.536,441.475 L200.536,456.503 z M206.529,427.022 L162.001,419.33 L162.001,432.637 L206.529,441.475 L206.529,427.022 z M212.316,427.022 L168.8,419.33 L168.8,406.513 L212.316,413.1 L212.316,427.022 z M217.91,413.1 L217.91,399.673 L175.371,394.154 L175.371,406.513 L217.91,413.1" fill="#F6BE41"/>
    <path d="M223.325,386.704 L181.729,382.218 L181.729,394.154 L223.325,399.673 L223.325,386.704" fill="#F6BE41"/>
    <path d="M187.888,382.218 L187.888,370.679 L228.572,374.168 L228.572,386.704 L187.888,382.218" fill="#F6BE41"/>
    <path d="M233.662,374.168 L233.662,362.035 L193.862,359.512 L193.862,370.679 L233.662,374.168" fill="#F6BE41"/>
    <path d="M199.661,348.694 L199.661,359.512 L238.637,362.035 L238.604,350.279 L199.661,348.694" fill="#F6BE41"/>
    <path d="M205.296,338.206 L243.407,338.883 L243.407,350.279 L205.296,348.694 L205.296,338.206" fill="#F6BE41"/>
    <path d="M210.776,338.206 L210.776,328.027 L248.08,327.821 L248.08,338.883 L210.776,338.206" fill="#F6BE41"/>
    <path d="M216.11,318.14 L252.629,317.076 L252.629,327.821 L216.11,327.821 L216.11,318.14" fill="#F6BE41"/>
    <path d="M221.305,308.53 L257.061,306.63 L257.061,317.076 L221.305,317.989 L221.305,308.53" fill="#F6BE41"/>
    <path d="M226.37,299.181 L226.37,308.26 L261.383,306.63 L261.383,296.469 L226.37,299.181" fill="#F6BE41"/>
    <path d="M265.6,286.577 L231.311,290.081 L231.311,298.799 L265.6,296.469 L265.6,286.577" fill="#F6BE41"/>
    <path d="M269.717,276.941 L236.134,281.217 L236.134,289.589 L269.717,286.577 L269.717,276.941" fill="#F6BE41"/>
    <path d="M273.738,267.548 L240.845,272.577 L240.845,280.618 L273.738,276.931 L273.738,267.548" fill="#F6BE41"/>
    <path d="M245.449,264.15 L245.449,271.873 L277.672,267.245 L277.672,258.386 L245.449,264.15" fill="#F6BE41"/>
    <path d="M289.729,257.325 L186.187,583.05 L143.854,608.212 L278.854,257.579 L289.729,257.325" fill="#F3B22E"/>
    <path d="M243.433,264.406 L64.9,583.28 L48.757,576.401 L240.24,265.469 L243.433,264.406 z M278.854,257.579 L275.661,258.644 L127.711,601.335 L143.854,608.212 L278.854,257.579" fill="#FCE585"/>
    <path d="M205.296,338.206 L243.407,338.883 L248.08,338.883 L210.776,338.206 L205.296,338.206 z M220.622,270.882 L220.753,279.781 L232.675,277.754 L239.255,267.071 L220.622,270.882 z M207.023,284.797 L206.895,295.401 L223.678,292.365 L231.088,280.331 L207.023,284.797 z M193.6,310.385 L193.568,300.484 L221.469,295.951 L214.176,307.792 L193.6,310.385 z M312.823,252.016 L312.819,262.059 L286.671,266.945 L286.515,257.4 L312.823,252.016 z M312.818,265.165 L281.761,270.928 L281.733,282.476 L312.813,277.361 L312.818,265.165 z M276.587,298.664 L276.588,286.995 L312.812,281.111 L312.809,293.307 L276.587,298.664 z M271.364,315.098 L312.802,310.06 L312.807,296.897 L271.534,302.658 L271.364,315.098 z M312.794,329.631 L265.213,334.444 L265.229,319.434 L312.8,313.97 L312.794,329.631 z M312.792,333.301 L259.328,337.943 L259.324,352.972 L312.786,349.685 L312.792,333.301 z M312.786,353.919 L252.908,357.329 L252.691,373.84 L312.777,372.034 L312.786,353.919 z M312.776,375.824 L245.771,377.514 L245.757,395.654 L312.77,395.678 L312.776,375.824 z M312.768,400.308 L238.921,399.549 L238.863,417.34 L312.76,420.115 L312.768,400.308 z M312.758,424.794 L231.013,421.052 L230.824,442.63 L312.749,449.27 L312.758,424.794 z M312.747,454.43 L312.737,479.714 L222.563,468.614 L222.561,446.479 L312.747,454.43 z M205.055,523.692 L312.712,548.139 L312.726,518.257 L205.068,498.452 L205.055,523.692 z M312.725,512.901 L312.735,485.356 L214.113,472.216 L213.922,495.8 L312.725,512.901 z M312.697,587.157 L195.16,554.817 L195.232,526.28 L312.712,554.702 L312.697,587.157 z M312.685,622.997 L312.695,594.407 L186.165,557.511 L186.187,583.05 L312.685,622.997 z M149.394,360.209 L149.26,347.502 L192.009,343.789 L182.808,358.729 L149.394,360.209 z M172.015,376.256 L134.242,377.284 L134.283,364.086 L181.153,361.416 L172.015,376.256 z M160.667,394.682 L118.984,394.483 L119.098,380.708 L170.064,379.424 L160.667,394.682 z M103.486,411.948 L103.703,398.16 L158.181,398.72 L148.994,413.638 L103.486,411.948 z M87.465,430.005 L136.11,434.557 L146.8,417.199 L87.501,414.486 L87.465,430.005 z M69.985,449.706 L69.665,432.867 L133.656,438.544 L122.742,456.264 L69.985,449.706 z M55.327,466.225 L110.458,476.212 L120.625,459.704 L54.864,450.923 L55.327,466.225 z M97.888,496.622 L39.453,484.116 L39.755,467.403 L108.366,479.608 L97.888,496.622 z M81.723,522.874 L94.833,501.585 L21.399,485.386 L20.883,505.046 L81.723,522.874 z M67.705,545.634 L3,525.2 L4.557,504.557 L79.538,526.419 L67.705,545.634 z M164.538,343.138 L164.535,330.999 L202.576,326.629 L194.151,340.31 L164.538,343.138 z M179.412,326.375 L179.72,315.474 L212.241,310.934 L204.211,323.975 L179.412,326.375" fill="#EAA72D"/>
  </g>
</svg>
